<?xml version="1.0" encoding="UTF-8"?><svg xmlns="http://www.w3.org/2000/svg" viewBox="0 0 779.9 779.66"><defs><style>.d{fill:#1d1d1b;}</style></defs><g id="a"/><g id="b"><g id="c"><g><g><path class="d" d="M163.55,276.61l529.29,358.67-5.4,6.37c-6.9,8.14-14.29,16.16-21.96,23.83-2.17,2.16-3.93,3.89-5.57,5.45-34.48,33.18-74.3,59.46-118.33,78.09-48.08,20.33-99.14,30.64-151.75,30.64s-103.67-10.31-151.75-30.64c-46.43-19.65-88.12-47.75-123.91-83.54s-63.89-77.48-83.52-123.9C10.31,493.5,0,442.45,0,389.83c0-19.43,1.44-38.92,4.26-57.93l1.76-11.79,49.74,33.71-.41,4.41c-.97,10.38-1.46,21.01-1.46,31.6,0,45.38,8.88,89.37,26.39,130.76,16.91,39.99,41.14,75.92,72,106.78,30.86,30.87,66.79,55.09,106.79,72.01,41.4,17.51,85.4,26.39,130.76,26.39s89.35-8.88,130.75-26.39c32.51-13.75,62.4-32.38,88.99-55.43L133.32,321.22l30.23-44.61Z"/><path class="d" d="M743.68,554.64l-29.32,52.3-38.84-26.72L71.44,164.67l4.61-6.24c9-12.2,18.87-24.03,29.33-35.16l4.41-4.69,633.89,436.06Z"/></g><path class="d" d="M722.39,345.34v-3.46c-4.04-28.41-11.79-56.27-23.01-82.81-16.92-39.99-41.14-75.92-72-106.78-30.87-30.87-66.8-55.09-106.8-72.01-41.4-17.51-85.39-26.39-130.75-26.39s-89.35,8.88-130.75,26.39c-8.58,3.63-17.03,7.62-25.24,11.92l412.49,279.53-30.23,44.62L137.8,92.22l7.9-6.36c10.92-8.79,22.46-17.09,34.29-24.67,18.35-11.73,37.89-22,58.09-30.55C286.16,10.31,337.22,0,389.83,0s103.67,10.31,151.75,30.64c46.43,19.65,88.11,47.75,123.9,83.54,35.8,35.79,63.9,77.48,83.53,123.9,17.65,41.71,27.78,85.84,30.12,131.18l.77,15.04-57.51-38.96Z"/></g></g></g></svg>